<svg width="197" height="45" viewBox="0 0 197 45" fill="none" xmlns="http://www.w3.org/2000/svg">
<path fill-rule="evenodd" clip-rule="evenodd" d="M29.8367 11.2309C29.8392 9.92902 29.0985 8.73868 27.9438 8.15121C28.1539 8.90512 28.0948 9.69663 27.8027 10.3987C28.5081 10.6201 29.1867 10.9005 29.8367 11.2309Z" fill="black"/>
<path fill-rule="evenodd" clip-rule="evenodd" d="M33.5471 27.0554C33.3147 27.0554 33.1258 26.8951 33.1258 26.664C33.1258 26.6202 33.1394 26.5777 33.1456 26.5592L33.5471 25.3214L33.9504 26.5641C33.9541 26.5709 33.9684 26.6208 33.9684 26.6658C33.9684 26.897 33.7801 27.0554 33.5471 27.0554ZM31.794 20.2074C31.7505 20.2074 31.7126 20.1907 31.6796 20.1679L29.9284 18.6435C29.6991 18.4555 29.5655 18.109 29.5655 17.7626C29.5655 17.0309 30.185 16.4471 30.932 16.489L31.9873 19.9639C31.9904 19.9781 31.996 19.9916 31.996 20.0064C31.996 20.1174 31.9052 20.2074 31.794 20.2074ZM34.7881 25.6764L32.6777 16.1839C33.4265 16.3522 34.1406 16.6092 34.8074 16.9477C31.8779 11.7881 26.749 10.7827 26.2941 10.6618C26.1655 9.22 25.1451 8.0352 23.7841 7.64746C24.1949 8.46054 24.2576 9.3926 23.9892 10.2384C18.4937 9.69095 13.1125 12.0168 9.88348 16.5883C11.099 16.129 12.368 15.827 13.6582 15.6858C10.8735 17.9173 8.89538 21.1006 8.23291 24.7394C9.14644 23.6792 10.2023 22.7712 11.3364 22.0191C10.0668 25.0921 9.86733 29.0668 11.3029 32.7507C11.4651 31.2059 11.8653 29.6876 12.4954 28.255C14.5071 32.4536 18.8206 35.357 23.8195 35.357C25.9126 35.357 27.8844 34.8453 29.6189 33.9447C23.8792 33.311 18.3706 26.1887 23.7984 19.0682C23.4168 20.8448 25.022 24.2155 28.706 23.6804L31.3602 27.257C31.7461 27.7544 32.3688 28.0614 33.063 28.0041C33.8094 27.9425 34.4544 27.4357 34.7148 26.7386C34.8553 26.3625 34.8608 26.005 34.7881 25.6764Z" fill="black"/>
<path fill-rule="evenodd" clip-rule="evenodd" d="M22.5736 42.9029C11.1718 42.9029 1.89605 33.7019 1.89605 22.3921C1.89605 11.0817 11.1718 1.88075 22.5736 1.88075C33.9754 1.88075 43.2511 11.0817 43.2511 22.3921C43.2511 33.7019 33.9754 42.9029 22.5736 42.9029ZM22.5736 0C10.106 0 0 10.0251 0 22.3921C0 34.7585 10.106 44.7836 22.5736 44.7836C35.0411 44.7836 45.1472 34.7585 45.1472 22.3921C45.1472 10.0251 35.0411 0 22.5736 0Z" fill="black"/>
<path fill-rule="evenodd" clip-rule="evenodd" d="M139.405 14.0266C139.34 13.9316 139.193 13.8552 139.081 13.8552H134.057C133.943 13.8552 133.851 13.947 133.851 14.0617V30.7216C133.851 30.8362 133.942 30.9287 134.058 30.9287H138.699C138.813 30.9287 138.907 30.8362 138.909 30.7209L139.022 22.0662L143.487 28.2589L148.212 22.0674L148.129 30.7209C148.127 30.8356 148.219 30.9287 148.334 30.9287H152.975C153.089 30.9287 153.183 30.8368 153.183 30.7216V14.0617C153.183 13.9477 153.088 13.8552 152.976 13.8552H147.951C147.837 13.8552 147.691 13.9329 147.627 14.0266L143.52 19.7262L139.405 14.0266Z" fill="black"/>
<path fill-rule="evenodd" clip-rule="evenodd" d="M91.5566 24.299H96.1094H96.4748C96.5891 24.299 96.6811 24.2059 96.6811 24.0906V20.4203C96.6811 20.3057 96.5885 20.2126 96.4742 20.2126H91.5566V17.9188H97.1615C97.2752 17.9188 97.3678 17.8264 97.3678 17.7105V14.0408C97.3678 13.9255 97.274 13.8325 97.1609 13.8325H86.7074C86.5937 13.8325 86.5005 13.9243 86.5005 14.0396V30.7444C86.5005 30.8585 86.5943 30.9516 86.7074 30.9516H97.1609C97.2746 30.9516 97.3678 30.8585 97.3678 30.7432V27.0729C97.3678 26.9577 97.2765 26.8646 97.1615 26.8646H91.5566V24.299Z" fill="black"/>
<path fill-rule="evenodd" clip-rule="evenodd" d="M73.6572 20.2349V14.06C73.6572 13.9466 73.5652 13.8548 73.4496 13.8548H68.8086C68.6943 13.8548 68.6011 13.9466 68.6011 14.0619V30.7218C68.6011 30.8364 68.693 30.9289 68.8086 30.9289H73.4496C73.5646 30.9289 73.6572 30.8352 73.6572 30.7236V24.3219H78.7133V30.7236C78.7133 30.837 78.8053 30.9289 78.9215 30.9289H83.5619C83.6769 30.9289 83.7695 30.837 83.7695 30.7218V14.0619C83.7695 13.9478 83.6775 13.8548 83.5619 13.8548H78.9215C78.8065 13.8548 78.7133 13.9478 78.7133 14.06V20.2349H73.6572Z" fill="black"/>
<path fill-rule="evenodd" clip-rule="evenodd" d="M161.729 24.4085L163.159 20.3554C163.196 20.2482 163.257 20.2451 163.293 20.3505L164.671 24.4085H161.729ZM171.818 30.7387L165.999 13.9821C165.962 13.8748 165.84 13.7595 165.724 13.7595H160.567C160.451 13.7595 160.327 13.8779 160.29 13.9851L154.447 30.7233C154.41 30.8312 154.473 30.9279 154.587 30.9279H159.553C159.667 30.9279 159.789 30.87 159.825 30.7609L160.659 28.2477H165.597L166.42 30.7609C166.455 30.87 166.577 30.9279 166.692 30.9279H171.678C171.793 30.9279 171.855 30.8453 171.818 30.7387Z" fill="black"/>
<path fill-rule="evenodd" clip-rule="evenodd" d="M174.881 30.7222C174.881 30.8362 174.973 30.9287 175.089 30.9287H179.73C179.844 30.9287 179.937 30.8356 179.937 30.7222V18.1487C179.937 18.034 180.029 17.9422 180.146 17.9422H184.121C184.237 17.9422 184.33 17.8491 184.33 17.7338V14.0636C184.33 13.9483 184.238 13.8552 184.124 13.8552H170.718C170.603 13.8552 170.511 13.9483 170.511 14.0636V17.7338C170.511 17.8485 170.603 17.9422 170.719 17.9422H174.673C174.788 17.9422 174.881 18.0353 174.881 18.1487V30.7222Z" fill="black"/>
<path fill-rule="evenodd" clip-rule="evenodd" d="M190.994 24.299H195.547H195.912C196.027 24.299 196.119 24.2059 196.119 24.0906V20.4203C196.119 20.3057 196.026 20.2126 195.912 20.2126H190.994V17.9188H196.598C196.713 17.9188 196.805 17.8264 196.805 17.7105V14.0408C196.805 13.9255 196.711 13.8325 196.598 13.8325H186.145C186.031 13.8325 185.938 13.9243 185.938 14.0396V30.7444C185.938 30.8585 186.032 30.9516 186.145 30.9516H196.598C196.712 30.9516 196.805 30.8585 196.805 30.7432V27.0729C196.805 26.9577 196.714 26.8646 196.598 26.8646H190.994V24.299Z" fill="black"/>
<path fill-rule="evenodd" clip-rule="evenodd" d="M111.084 24.6276L110.864 24.5259C110.713 24.4575 110.534 24.5093 110.446 24.6486C109.896 25.5116 108.94 26.08 107.964 26.08C105.882 26.08 104.37 24.529 104.37 22.3918C104.37 20.2552 105.882 18.7043 107.964 18.7043C108.799 18.7043 109.659 19.2332 110.244 19.9556C110.341 20.0734 110.506 20.1073 110.644 20.042L115.083 17.9202C115.259 17.8351 115.323 17.6181 115.222 17.4517C114.156 15.7096 112.022 13.5681 107.964 13.5681C105.346 13.5681 102.96 14.4317 101.244 16C99.4925 17.6027 98.5273 19.8724 98.5273 22.3918C98.5273 27.5046 102.497 31.2155 107.964 31.2155C112.258 31.2155 114.409 28.7763 115.41 26.9793C115.504 26.8111 115.435 26.5996 115.258 26.5201L111.084 24.6276Z" fill="black"/>
<path fill-rule="evenodd" clip-rule="evenodd" d="M63.5844 24.6276L63.3638 24.5259C63.2128 24.4575 63.0338 24.5093 62.9455 24.6486C62.3962 25.5116 61.4404 26.08 60.4641 26.08C58.3816 26.08 56.8696 24.529 56.8696 22.3918C56.8696 20.2552 58.3816 18.7043 60.4641 18.7043C61.2987 18.7043 62.1588 19.2332 62.7442 19.9556C62.8405 20.0734 63.0064 20.1073 63.1438 20.042L67.5828 17.9202C67.7593 17.8351 67.8233 17.6181 67.722 17.4517C66.6562 15.7096 64.5215 13.5681 60.4641 13.5681C57.8459 13.5681 55.4595 14.4317 53.7443 16C51.9925 17.6027 51.0273 19.8724 51.0273 22.3918C51.0273 27.5046 54.9966 31.2155 60.4641 31.2155C64.7583 31.2155 66.9085 28.7763 67.9103 26.9793C68.0041 26.8111 67.9345 26.5996 67.7581 26.5201L63.5844 24.6276Z" fill="black"/>
<path fill-rule="evenodd" clip-rule="evenodd" d="M132.477 30.6851L126.571 22.2368L132.397 14.1184C132.473 14.0123 132.472 13.8237 132.292 13.804L131.788 13.759H131.738H126.522C126.407 13.759 126.262 13.8872 126.196 13.9797L121.869 20.2112L121.864 14.0068C121.864 13.8921 121.772 13.759 121.656 13.759H117.015C116.901 13.759 116.721 13.9575 116.721 14.0727V30.7326C116.721 30.8466 116.9 30.7831 117.015 30.7831H121.656C121.771 30.7831 121.864 30.7684 121.865 30.6568L121.864 24.2933L126.399 30.6722C126.462 30.7659 126.606 30.7831 126.721 30.7831H131.36L132.356 30.8454C132.486 30.8466 132.552 30.7918 132.477 30.6851Z" fill="black"/>
</svg>
